<svg xmlns="http://www.w3.org/2000/svg" width="40.239" height="38.225"><g data-name="Group 118"><g data-name="contact (1)"><g data-name="Group 117"><g data-name="Group 116" fill="#dfab00"><path data-name="Path 281" d="M38.529 0H10.421A1.713 1.713 0 008.71 1.711v7.753L7.425 7.535a1.988 1.988 0 00-2.683-.6L2.099 8.521a3.88 3.88 0 00-1.772 2.3c-.966 3.512-.25 9.566 8.632 18.447 7.064 7.056 12.33 8.957 15.96 8.957a9.372 9.372 0 002.489-.325 3.887 3.887 0 002.3-1.77l1.591-2.643a1.988 1.988 0 00-.6-2.68l-6.332-4.221a2 2 0 00-2.675.434l-1.851 2.367a.642.642 0 01-.821.174l-.351-.193a21.088 21.088 0 01-5.493-4.315c-.314-.314-.6-.608-.865-.889h26.218a1.709 1.709 0 001.711-1.7V1.711A1.713 1.713 0 0038.529 0zm-20.5 30.544l.341.187a1.976 1.976 0 002.532-.522l1.843-2.37a.652.652 0 01.872-.142l6.332 4.221a.648.648 0 01.2.872l-1.588 2.647a2.549 2.549 0 01-1.5 1.167c-3.171.872-8.721.134-17.143-8.289S.752 14.343 1.622 11.175a2.549 2.549 0 011.167-1.5l2.646-1.588a.649.649 0 01.872.2l4.223 6.332a.651.651 0 01-.142.872l-2.37 1.837a1.976 1.976 0 00-.519 2.531l.188.341a22.238 22.238 0 004.544 5.8 22.283 22.283 0 005.796 4.544zm20.87-8.084a.366.366 0 01-.369.362H11.099a16.917 16.917 0 01-2.239-3.263l-.193-.352a.64.64 0 01.173-.82l2.371-1.844a2 2 0 00.434-2.675l-1.594-2.392V1.711a.365.365 0 01.369-.369h28.109a.365.365 0 01.369.369v20.75z"/><path data-name="Path 282" d="M37.759 1.286L24.991 11.337a1 1 0 01-1.212 0L11.017 1.286a.746.746 0 00-1.071.153.813.813 0 00.147 1.111l12.765 10.047a2.5 2.5 0 003.056 0L38.677 2.549a.8.8 0 00.3-.524.815.815 0 00-.149-.587.746.746 0 00-1.069-.152z"/><path data-name="Path 283" d="M18.502 12.774l-8.376 8.97a.819.819 0 101.2 1.115l8.376-8.974a.818.818 0 00-1.2-1.111z"/><path data-name="Path 284" d="M30.523 12.78a.843.843 0 00-1.176-.04.807.807 0 00-.041 1.155l8.522 8.965a.843.843 0 001.176.04.807.807 0 00.041-1.155z"/></g></g></g></g></svg>