<svg xmlns="http://www.w3.org/2000/svg" width="57.477" height="37.883"><g data-name="Group 115"><path data-name="Path 280" d="M57.476 9.778a4.039 4.039 0 00-.825-2.487L52.1 1.464A3.916 3.916 0 0049.017 0 3.8 3.8 0 0047 .564L42.559 3.33a4.052 4.052 0 01-2.041.5 3.7 3.7 0 01-1.565-.307L34.6 1.411a5.238 5.238 0 00-2.27-.477 5.654 5.654 0 00-3.192.92l-.507.356-1.727-.86a6.515 6.515 0 00-2.832-.583 6.776 6.776 0 00-2.6.477L18.51 2.508a5.415 5.415 0 01-2.01.342 5.413 5.413 0 01-2.009-.342l-2.965-1.264a4.315 4.315 0 00-1.692-.33 5.152 5.152 0 00-1.925.378 4.376 4.376 0 00-1.624 1.117l-5.4 6.045a3.5 3.5 0 00.342 5.01l5.035 4.3-2.388 2.492A3.558 3.558 0 004 25.288l.485.46a3.553 3.553 0 001.579.856 3.518 3.518 0 00.663 4.273l.486.462a3.6 3.6 0 003.869.7 3.521 3.521 0 00.99 1.724l.486.462a3.6 3.6 0 004.457.383 3.534 3.534 0 00.931 1.53l.486.462a3.6 3.6 0 005.064-.12l2.111-2.2 2.868 2.654a3.6 3.6 0 005.06-.182l.458-.49a3.532 3.532 0 00.8-1.451l1.117 1.019a3.6 3.6 0 005.064-.187l.455-.49a3.52 3.52 0 00.913-1.968 3.506 3.506 0 003.516-1.009l.457-.49a3.548 3.548 0 00.954-2.426 3.639 3.639 0 00-.1-.8 3.549 3.549 0 002.148-1.087l.458-.49a3.563 3.563 0 00-.186-5.039l-.856-.791 7.728-8.544a4.068 4.068 0 001.015-2.731zM6.962 24.786a1.625 1.625 0 01-1.123-.444l-.485-.46a1.62 1.62 0 01-.056-2.291l4.892-5.1a1.642 1.642 0 012.3-.055l.483.461a3.065 3.065 0 01.5 1.174 1.612 1.612 0 01-.289.916l-5.28 5.5a1.647 1.647 0 01-.942.299zm3.907 5.092a1.642 1.642 0 01-2.3.054l-.486-.462a1.625 1.625 0 01-.055-2.291s6.521-6.788 6.576-6.853a1.633 1.633 0 012.251-.011l.486.462a1.622 1.622 0 01.055 2.291zm5.344 2.886a1.64 1.64 0 01-2.3.054l-.487-.462a1.61 1.61 0 01-.142-2.182l4.541-4.74a1.628 1.628 0 012.211.022l.487.462a1.622 1.622 0 01.055 2.29zm8.628-.5l-2.756 2.876a1.641 1.641 0 01-2.3.054l-.485-.464a1.622 1.622 0 01-.055-2.291L22 29.566a1.642 1.642 0 012.3-.054l.487.462a1.623 1.623 0 01.053 2.29zm23.938-7.8a1.6 1.6 0 01-.434 1.1l-.457.49a1.641 1.641 0 01-2.3.084l-7.694-7.115-1.33 1.424 8.235 7.629a1.621 1.621 0 01.084 2.291l-.455.49a1.641 1.641 0 01-2.3.084l-7.7-7.115-1.328 1.425 6.83 6.316A1.619 1.619 0 0140 33.83l-.457.49a1.643 1.643 0 01-2.3.085l-6.816-6.293-1.327 1.43.025.024 3.414 3.151a1.6 1.6 0 01.029 2.219l-.457.49a1.638 1.638 0 01-2.3.083l-2.972-2.752a3.509 3.509 0 00-.7-4.191l-.487-.462a3.581 3.581 0 00-2.469-.981c-.069 0-.138.016-.2.02v-.05a6.8 6.8 0 00-1.107-2.582l-.486-.461a3.569 3.569 0 00-1.8-.918 3.513 3.513 0 00-.9-3.761l-.486-.462a3.588 3.588 0 00-2.471-.982c-.1 0-.2.021-.308.03a3.548 3.548 0 00-1.1-2.469l-.485-.46a3.6 3.6 0 00-5.064.119l-1.155 1.2-5.112-4.359a1.568 1.568 0 01-.152-2.241l5.4-6.045a2.463 2.463 0 01.9-.609 3.212 3.212 0 011.186-.233 2.367 2.367 0 01.922.173l2.963 1.264a7.291 7.291 0 002.78.5 7.291 7.291 0 002.78-.5l2.961-1.267a4.852 4.852 0 011.831-.32 4.649 4.649 0 011.957.377l.791.394-3.021 2.123a3.489 3.489 0 00-.8 4.953l.4.536a3.9 3.9 0 003.12 1.528 3.789 3.789 0 001.952-.532l1.806-1.085a2.975 2.975 0 011.5-.365 3.124 3.124 0 011.767.5l5 3.583a49.919 49.919 0 013.928 3.2l5.785 5.348a1.612 1.612 0 01.514 1.193zm6.232-13.251L47.3 19.73l-3.5-3.234a51.484 51.484 0 00-4.115-3.358l-5-3.583a5.05 5.05 0 00-2.91-.863 4.919 4.919 0 00-2.511.645l-1.805 1.085a1.833 1.833 0 01-.943.252 1.948 1.948 0 01-1.551-.741l-.4-.535a1.548 1.548 0 01.355-2.2l5.341-3.753a3.759 3.759 0 012.064-.563 3.308 3.308 0 011.415.282l4.36 2.103a5.617 5.617 0 002.42.5 5.949 5.949 0 003.076-.794l4.442-2.763a1.846 1.846 0 01.978-.268 1.971 1.971 0 011.541.714l4.554 5.827a2.12 2.12 0 01.415 1.293 2.161 2.161 0 01-.515 1.436z" fill="#dfab00"/></g></svg>