<svg xmlns="http://www.w3.org/2000/svg" width="20.1" height="15.912"><g data-name="Icon ionic-ios-list" fill="#4bc616"><path data-name="Path 12" d="M2.931 7.959a1.466 1.466 0 11-1.466-1.466 1.466 1.466 0 011.466 1.466z"/><path data-name="Path 13" d="M2.931 1.465A1.466 1.466 0 111.466 0a1.466 1.466 0 011.465 1.465z"/><path data-name="Path 14" d="M2.931 14.447a1.466 1.466 0 11-1.465-1.466 1.466 1.466 0 011.466 1.466z"/><path data-name="Path 15" d="M19.262 7.118H6.673a.838.838 0 000 1.675h12.589a.838.838 0 000-1.675z"/><path data-name="Path 16" d="M19.262 13.609H6.673a.838.838 0 100 1.675h12.589a.838.838 0 000-1.675z"/><path data-name="Path 17" d="M6.673 2.302h12.589a.838.838 0 100-1.675H6.673a.838.838 0 100 1.675z"/></g></svg>